<mxfile host="app.diagrams.net" agent="Mozilla/5.0 (Windows NT 10.0; Win64; x64) AppleWebKit/537.36 (KHTML, like Gecko) Chrome/126.0.0.0 Safari/537.36 OPR/112.0.0.0" version="24.7.13">
  <diagram name="Page-1" id="e7e014a7-5840-1c2e-5031-d8a46d1fe8dd">
    <mxGraphModel dx="2368" dy="1485" grid="1" gridSize="10" guides="1" tooltips="1" connect="1" arrows="1" fold="1" page="1" pageScale="1" pageWidth="1169" pageHeight="826" background="none" math="0" shadow="0">
      <root>
        <mxCell id="0" />
        <mxCell id="1" parent="0" />
        <mxCell id="5KnXSKpdM2480xAjYP6Z-99" value="" style="edgeStyle=orthogonalEdgeStyle;rounded=0;orthogonalLoop=1;jettySize=auto;html=1;" edge="1" parent="1" source="5KnXSKpdM2480xAjYP6Z-44" target="5KnXSKpdM2480xAjYP6Z-50">
          <mxGeometry relative="1" as="geometry" />
        </mxCell>
        <mxCell id="5KnXSKpdM2480xAjYP6Z-44" value="Acervo" style="shape=folder;fontStyle=1;tabWidth=80;tabHeight=30;tabPosition=left;html=1;boundedLbl=1;whiteSpace=wrap;" vertex="1" parent="1">
          <mxGeometry x="-280" y="290" width="150" height="80" as="geometry" />
        </mxCell>
        <mxCell id="5KnXSKpdM2480xAjYP6Z-71" value="" style="edgeStyle=orthogonalEdgeStyle;rounded=0;orthogonalLoop=1;jettySize=auto;html=1;" edge="1" parent="1" source="5KnXSKpdM2480xAjYP6Z-45" target="5KnXSKpdM2480xAjYP6Z-47">
          <mxGeometry relative="1" as="geometry" />
        </mxCell>
        <mxCell id="5KnXSKpdM2480xAjYP6Z-45" value="Cadastro de livros" style="shape=folder;fontStyle=1;tabWidth=80;tabHeight=30;tabPosition=left;html=1;boundedLbl=1;whiteSpace=wrap;" vertex="1" parent="1">
          <mxGeometry x="60" y="160" width="150" height="80" as="geometry" />
        </mxCell>
        <mxCell id="5KnXSKpdM2480xAjYP6Z-73" value="" style="edgeStyle=orthogonalEdgeStyle;rounded=0;orthogonalLoop=1;jettySize=auto;html=1;" edge="1" parent="1" source="5KnXSKpdM2480xAjYP6Z-47" target="5KnXSKpdM2480xAjYP6Z-49">
          <mxGeometry relative="1" as="geometry" />
        </mxCell>
        <mxCell id="5KnXSKpdM2480xAjYP6Z-74" value="&lt;font style=&quot;font-size: 14px;&quot;&gt;Devolução de Itens Emprestados&lt;/font&gt;" style="edgeLabel;html=1;align=center;verticalAlign=middle;resizable=0;points=[];" vertex="1" connectable="0" parent="5KnXSKpdM2480xAjYP6Z-73">
          <mxGeometry x="-0.4989" y="-3" relative="1" as="geometry">
            <mxPoint as="offset" />
          </mxGeometry>
        </mxCell>
        <mxCell id="5KnXSKpdM2480xAjYP6Z-47" value="Empréstimos" style="shape=folder;fontStyle=1;tabWidth=80;tabHeight=30;tabPosition=left;html=1;boundedLbl=1;whiteSpace=wrap;" vertex="1" parent="1">
          <mxGeometry x="60" y="-80" width="150" height="80" as="geometry" />
        </mxCell>
        <mxCell id="5KnXSKpdM2480xAjYP6Z-95" style="edgeStyle=orthogonalEdgeStyle;rounded=0;orthogonalLoop=1;jettySize=auto;html=1;exitX=0;exitY=0;exitDx=0;exitDy=42.5;exitPerimeter=0;" edge="1" parent="1" source="5KnXSKpdM2480xAjYP6Z-49" target="5KnXSKpdM2480xAjYP6Z-88">
          <mxGeometry relative="1" as="geometry">
            <mxPoint x="-340" y="-20" as="targetPoint" />
            <Array as="points">
              <mxPoint x="-370" y="-177" />
              <mxPoint x="-370" y="10" />
            </Array>
          </mxGeometry>
        </mxCell>
        <mxCell id="5KnXSKpdM2480xAjYP6Z-96" value="Armazena dados" style="edgeLabel;html=1;align=center;verticalAlign=middle;resizable=0;points=[];" vertex="1" connectable="0" parent="5KnXSKpdM2480xAjYP6Z-95">
          <mxGeometry x="0.0531" y="3" relative="1" as="geometry">
            <mxPoint as="offset" />
          </mxGeometry>
        </mxCell>
        <mxCell id="5KnXSKpdM2480xAjYP6Z-49" value="Devoluções" style="shape=folder;fontStyle=1;tabWidth=80;tabHeight=30;tabPosition=left;html=1;boundedLbl=1;whiteSpace=wrap;" vertex="1" parent="1">
          <mxGeometry x="60" y="-220" width="150" height="80" as="geometry" />
        </mxCell>
        <mxCell id="5KnXSKpdM2480xAjYP6Z-81" style="edgeStyle=orthogonalEdgeStyle;rounded=0;orthogonalLoop=1;jettySize=auto;html=1;exitX=0;exitY=0;exitDx=150;exitDy=55;exitPerimeter=0;" edge="1" parent="1" source="5KnXSKpdM2480xAjYP6Z-50" target="5KnXSKpdM2480xAjYP6Z-45">
          <mxGeometry relative="1" as="geometry" />
        </mxCell>
        <mxCell id="5KnXSKpdM2480xAjYP6Z-82" value="&lt;font style=&quot;font-size: 14px;&quot;&gt;Gerencia livros&lt;/font&gt;" style="edgeLabel;html=1;align=center;verticalAlign=middle;resizable=0;points=[];" vertex="1" connectable="0" parent="5KnXSKpdM2480xAjYP6Z-81">
          <mxGeometry x="0.3436" y="1" relative="1" as="geometry">
            <mxPoint as="offset" />
          </mxGeometry>
        </mxCell>
        <mxCell id="5KnXSKpdM2480xAjYP6Z-83" style="edgeStyle=orthogonalEdgeStyle;rounded=0;orthogonalLoop=1;jettySize=auto;html=1;entryX=0;entryY=0;entryDx=0;entryDy=42.5;entryPerimeter=0;" edge="1" parent="1" source="5KnXSKpdM2480xAjYP6Z-50" target="5KnXSKpdM2480xAjYP6Z-49">
          <mxGeometry relative="1" as="geometry">
            <mxPoint x="-150" y="-180" as="targetPoint" />
            <Array as="points">
              <mxPoint x="-205" y="-160" />
              <mxPoint x="60" y="-160" />
            </Array>
          </mxGeometry>
        </mxCell>
        <mxCell id="5KnXSKpdM2480xAjYP6Z-84" value="&lt;font style=&quot;font-size: 14px;&quot;&gt;Registra devoluções&lt;/font&gt;" style="edgeLabel;html=1;align=center;verticalAlign=middle;resizable=0;points=[];" vertex="1" connectable="0" parent="5KnXSKpdM2480xAjYP6Z-83">
          <mxGeometry x="0.5561" y="2" relative="1" as="geometry">
            <mxPoint as="offset" />
          </mxGeometry>
        </mxCell>
        <mxCell id="5KnXSKpdM2480xAjYP6Z-50" value="Usuários" style="shape=folder;fontStyle=1;tabWidth=80;tabHeight=30;tabPosition=left;html=1;boundedLbl=1;whiteSpace=wrap;" vertex="1" parent="1">
          <mxGeometry x="-280" y="150" width="150" height="80" as="geometry" />
        </mxCell>
        <mxCell id="5KnXSKpdM2480xAjYP6Z-70" value="" style="edgeStyle=orthogonalEdgeStyle;rounded=0;orthogonalLoop=1;jettySize=auto;html=1;exitX=0;exitY=0;exitDx=150;exitDy=42.5;exitPerimeter=0;" edge="1" parent="1" source="5KnXSKpdM2480xAjYP6Z-91" target="5KnXSKpdM2480xAjYP6Z-47">
          <mxGeometry relative="1" as="geometry" />
        </mxCell>
        <mxCell id="5KnXSKpdM2480xAjYP6Z-72" value="&lt;font style=&quot;font-size: 14px;&quot;&gt;Contatos para empréstimos&lt;/font&gt;" style="edgeLabel;html=1;align=center;verticalAlign=middle;resizable=0;points=[];" vertex="1" connectable="0" parent="5KnXSKpdM2480xAjYP6Z-70">
          <mxGeometry x="-0.1279" y="1" relative="1" as="geometry">
            <mxPoint as="offset" />
          </mxGeometry>
        </mxCell>
        <mxCell id="5KnXSKpdM2480xAjYP6Z-79" style="edgeStyle=orthogonalEdgeStyle;rounded=0;orthogonalLoop=1;jettySize=auto;html=1;entryX=0;entryY=0;entryDx=0;entryDy=67.5;entryPerimeter=0;" edge="1" parent="1" source="5KnXSKpdM2480xAjYP6Z-50" target="5KnXSKpdM2480xAjYP6Z-47">
          <mxGeometry relative="1" as="geometry" />
        </mxCell>
        <mxCell id="5KnXSKpdM2480xAjYP6Z-80" value="&lt;font style=&quot;font-size: 14px;&quot;&gt;Realiza empréstimos&lt;/font&gt;" style="edgeLabel;html=1;align=center;verticalAlign=middle;resizable=0;points=[];" vertex="1" connectable="0" parent="5KnXSKpdM2480xAjYP6Z-79">
          <mxGeometry x="-0.028" y="-2" relative="1" as="geometry">
            <mxPoint as="offset" />
          </mxGeometry>
        </mxCell>
        <mxCell id="5KnXSKpdM2480xAjYP6Z-89" value="" style="edgeStyle=orthogonalEdgeStyle;rounded=0;orthogonalLoop=1;jettySize=auto;html=1;" edge="1" parent="1" source="5KnXSKpdM2480xAjYP6Z-85" target="5KnXSKpdM2480xAjYP6Z-88">
          <mxGeometry relative="1" as="geometry" />
        </mxCell>
        <mxCell id="5KnXSKpdM2480xAjYP6Z-90" value="Consulta/Grava Dados" style="edgeLabel;html=1;align=center;verticalAlign=middle;resizable=0;points=[];" vertex="1" connectable="0" parent="5KnXSKpdM2480xAjYP6Z-89">
          <mxGeometry x="-0.04" relative="1" as="geometry">
            <mxPoint as="offset" />
          </mxGeometry>
        </mxCell>
        <mxCell id="5KnXSKpdM2480xAjYP6Z-85" value="Interface Web" style="shape=folder;fontStyle=1;tabWidth=80;tabHeight=30;tabPosition=left;html=1;boundedLbl=1;whiteSpace=wrap;" vertex="1" parent="1">
          <mxGeometry x="-590" y="150" width="150" height="80" as="geometry" />
        </mxCell>
        <mxCell id="5KnXSKpdM2480xAjYP6Z-86" style="edgeStyle=orthogonalEdgeStyle;rounded=0;orthogonalLoop=1;jettySize=auto;html=1;exitX=0;exitY=0;exitDx=150;exitDy=55;exitPerimeter=0;entryX=0.2;entryY=0.75;entryDx=0;entryDy=0;entryPerimeter=0;" edge="1" parent="1" source="5KnXSKpdM2480xAjYP6Z-85" target="5KnXSKpdM2480xAjYP6Z-50">
          <mxGeometry relative="1" as="geometry" />
        </mxCell>
        <mxCell id="5KnXSKpdM2480xAjYP6Z-87" value="&lt;font style=&quot;font-size: 14px;&quot;&gt;Acesso web&lt;/font&gt;" style="edgeLabel;html=1;align=center;verticalAlign=middle;resizable=0;points=[];" vertex="1" connectable="0" parent="5KnXSKpdM2480xAjYP6Z-86">
          <mxGeometry x="-0.1179" relative="1" as="geometry">
            <mxPoint as="offset" />
          </mxGeometry>
        </mxCell>
        <mxCell id="5KnXSKpdM2480xAjYP6Z-88" value="Banco de dados" style="shape=folder;fontStyle=1;tabWidth=80;tabHeight=30;tabPosition=left;html=1;boundedLbl=1;whiteSpace=wrap;" vertex="1" parent="1">
          <mxGeometry x="-590" y="-30" width="150" height="80" as="geometry" />
        </mxCell>
        <mxCell id="5KnXSKpdM2480xAjYP6Z-93" value="" style="edgeStyle=orthogonalEdgeStyle;rounded=0;orthogonalLoop=1;jettySize=auto;html=1;" edge="1" parent="1" source="5KnXSKpdM2480xAjYP6Z-91" target="5KnXSKpdM2480xAjYP6Z-88">
          <mxGeometry relative="1" as="geometry" />
        </mxCell>
        <mxCell id="5KnXSKpdM2480xAjYP6Z-98" value="Armazena dados" style="edgeLabel;html=1;align=center;verticalAlign=middle;resizable=0;points=[];" vertex="1" connectable="0" parent="5KnXSKpdM2480xAjYP6Z-93">
          <mxGeometry x="0.1143" relative="1" as="geometry">
            <mxPoint as="offset" />
          </mxGeometry>
        </mxCell>
        <mxCell id="5KnXSKpdM2480xAjYP6Z-91" value="&lt;span style=&quot;font-weight: 400;&quot;&gt;Cadastro de contato&lt;/span&gt;" style="shape=folder;fontStyle=1;tabWidth=80;tabHeight=30;tabPosition=left;html=1;boundedLbl=1;whiteSpace=wrap;" vertex="1" parent="1">
          <mxGeometry x="-590" y="-180" width="150" height="80" as="geometry" />
        </mxCell>
        <mxCell id="5KnXSKpdM2480xAjYP6Z-94" style="edgeStyle=orthogonalEdgeStyle;rounded=0;orthogonalLoop=1;jettySize=auto;html=1;exitX=0;exitY=0;exitDx=0;exitDy=42.5;exitPerimeter=0;entryX=0;entryY=0;entryDx=150;entryDy=42.5;entryPerimeter=0;" edge="1" parent="1" source="5KnXSKpdM2480xAjYP6Z-47" target="5KnXSKpdM2480xAjYP6Z-88">
          <mxGeometry relative="1" as="geometry" />
        </mxCell>
        <mxCell id="5KnXSKpdM2480xAjYP6Z-97" value="Armazena dados" style="edgeLabel;html=1;align=center;verticalAlign=middle;resizable=0;points=[];" vertex="1" connectable="0" parent="5KnXSKpdM2480xAjYP6Z-94">
          <mxGeometry x="0.4145" y="3" relative="1" as="geometry">
            <mxPoint as="offset" />
          </mxGeometry>
        </mxCell>
      </root>
    </mxGraphModel>
  </diagram>
</mxfile>
